#!OML:ASF F:\VICON\USERDATA\INSTALL\rory3\rory3.ASF
:FULLY-SPECIFIED
:DEGREES
161
root 0.838843 18.1331 -0.372673 -4.10592 -3.13093 0.371028
lowerback 11.1501 0.142536 -1.04913
upperback 0.970316 0.127816 1.25893
thorax -5.24551 0.0989986 1.88947
lowerneck -16.3874 -2.56689 -1.48206
upperneck 22.9945 -2.98788 -0.86513
head 10.0379 -1.61581 -0.455505
rclavicle -6.70898e-015 7.15625e-015
rhumerus -27.952 -15.961 -80.024
rradius 28.4572
rwrist 2.70716
rhand -17.8644 23.4579
rfingers 7.12502
rthumb 8.40119 -6.35504
lclavicle -6.70898e-015 7.15625e-015
lhumerus -30.6022 -0.671436 84.425
lradius 25.7019
lwrist 7.6338
lhand -27.5167 24.9619
lfingers 7.12502
lthumb -0.91912 54.9396
rfemur -22.8649 -2.23899 20.7641
rtibia 73.3697
rfoot -5.09054 -3.28802
rtoes 7.09084
lfemur -6.16144 -0.223037 -25.3637
ltibia 24.2783
lfoot -12.4037 -5.57959
ltoes 5.0203
162
root 0.841956 18.1254 -0.204579 -4.13669 -2.86135 0.329127
lowerback 11.0491 -0.00944376 -0.995764
upperback 1.02417 -0.0669398 1.26478
thorax -5.12464 0.000536301 1.8945
lowerneck -16.3795 -2.56362 -1.41751
upperneck 22.8347 -3.02111 -0.787372
head 9.97929 -1.61633 -0.44149
rclavicle -6.21202e-016 -5.1684e-015
rhumerus -28.2255 -16.3098 -79.868
rradius 28.3523
rwrist 2.40573
rhand -17.9235 23.6502
rfingers 7.12502
rthumb 8.34419 -6.16502
lclavicle -6.21202e-016 -5.1684e-015
lhumerus -29.9245 -0.889241 84.1979
lradius 25.733
lwrist 6.97574
lhand -26.3322 26.687
lfingers 7.12502
lthumb 0.224873 56.6666
rfemur -23.7775 -2.28597 20.8698
rtibia 72.547
rfoot -6.04049 -3.20608
rtoes 5.5545
lfemur -5.6228 -0.281717 -25.3868
ltibia 24.5522
lfoot -12.989 -5.45874
ltoes 6.15871
163
root 0.843113 18.1304 -0.0339708 -4.1642 -2.65936 0.517615
lowerback 10.9984 -0.124591 -1.23722
upperback 1.01823 -0.248901 1.26766
thorax -5.09421 -0.0841908 2.06129
lowerneck -16.276 -2.52928 -1.51638
upperneck 22.7485 -2.96056 -0.737737
head 9.93152 -1.59143 -0.397106
rclavicle -1.963e-015 2.38542e-015
rhumerus -28.5504 -16.3507 -79.7135
rradius 28.2484
rwrist 2.17066
rhand -18.1419 24.0919
rfingers 7.12502
rthumb 8.13335 -5.73157
lclavicle -1.963e-015 2.38542e-015
lhumerus -29.3864 -1.57001 84.3304
lradius 25.6335
lwrist 7.84625
lhand -27.5068 24.3344
lfingers 7.12502
lthumb -0.90959 54.3122
rfemur -24.5628 -2.24001 20.7077
rtibia 71.4862
rfoot -6.85453 -3.19891
rtoes 4.49134
lfemur -5.03685 -0.232449 -25.6561
ltibia 24.7309
lfoot -13.6243 -5.38266
ltoes 4.89195
164
root 0.836765 18.1216 0.119527 -4.11087 -2.4037 0.595913
lowerback 11.1656 -0.219438 -1.46349
upperback 0.939829 -0.402334 1.29464
thorax -5.26128 -0.152037 2.24352
lowerneck -16.3763 -2.50047 -1.24029
upperneck 22.7098 -2.91203 -1.0611
head 9.92601 -1.58302 -0.550735
rclavicle -2.90723e-015 2.18663e-014
rhumerus -29.0175 -16.5308 -79.5813
rradius 28.4357
rwrist 2.12075
rhand -18.0484 24.364
rfingers 7.12502
rthumb 8.22365 -5.456
lclavicle -2.90723e-015 2.18663e-014
lhumerus -28.9695 -2.37553 84.4553
lradius 26.0665
lwrist 8.3841
lhand -28.0973 26.7658
lfingers 7.12502
lthumb -1.47987 56.7405
rfemur -25.4899 -2.22053 20.7081
rtibia 70.2698
rfoot -7.5861 -3.18357
rtoes 3.16388
lfemur -4.55414 -0.225292 -25.7506
ltibia 24.6969
lfoot -14.0424 -5.53976
ltoes 4.14721
165
root 0.831681 18.1131 0.278564 -4.11274 -2.09826 0.508355
lowerback 11.2886 -0.346837 -1.51172
upperback 0.886485 -0.573827 1.3789
thorax -5.37629 -0.232549 2.38818
lowerneck -16.3243 -2.45515 -1.20054
upperneck 22.5856 -2.84511 -1.12129
head 9.87025 -1.55573 -0.567212
rclavicle 8.29926e-015 1.11319e-014
rhumerus -29.4529 -16.704 -79.3712
rradius 28.5058
rwrist 2.21223
rhand -18.0178 24.6335
rfingers 7.12502
rthumb 8.25315 -5.1853
lclavicle 8.29926e-015 1.11319e-014
lhumerus -28.7476 -2.87892 84.5148
lradius 26.2425
lwrist 9.4171
lhand -29.2854 23.5743
lfingers 7.12502
lthumb -2.6273 53.5379
rfemur -26.248 -2.25625 20.8771
rtibia 68.8897
rfoot -8.32932 -3.30422
rtoes 0.746852
lfemur -3.96075 -0.178573 -25.6604
ltibia 24.6209
lfoot -14.502 -5.73265
ltoes 4.70091
166
root 0.830971 18.1099 0.443405 -4.11764 -1.84047 0.456163
lowerback 11.3297 -0.484459 -1.58845
upperback 0.841942 -0.75911 1.51027
thorax -5.43373 -0.319301 2.59994
lowerneck -16.2065 -2.38854 -1.49379
upperneck 22.5551 -2.72811 -0.907323
head 9.84585 -1.50201 -0.426268
rclavicle 4.96962e-015 1.03368e-014
rhumerus -29.7925 -16.6363 -79.138
rradius 28.4245
rwrist 2.27596
rhand -18.3822 24.517
rfingers 7.12502
rthumb 7.90142 -5.31532
lclavicle 4.96962e-015 1.03368e-014
lhumerus -28.4556 -2.98436 84.4569
lradius 26.8491
lwrist 8.72956
lhand -28.1017 27.1967
lfingers 7.12502
lthumb -1.48417 57.1713
rfemur -26.8747 -2.21513 20.9844
rtibia 67.3626
rfoot -9.11769 -3.62552
rtoes -2.09397
lfemur -3.39486 -0.127168 -25.6338
ltibia 24.6898
lfoot -15.1256 -5.87298
ltoes 3.74737
167
root 0.830731 18.0909 0.600723 -4.04863 -1.61097 0.675385
lowerback 11.3588 -0.624695 -1.87276
upperback 0.837435 -0.982312 1.50258
thorax -5.43762 -0.422421 2.78843
lowerneck -16.2555 -2.31764 -1.44382
upperneck 22.4423 -2.62261 -0.98261
head 9.81279 -1.45753 -0.446445
rclavicle -6.60959e-015 -1.11319e-014
rhumerus -30.0042 -16.4541 -79.1466
rradius 28.4848
rwrist 2.1804
rhand -18.6018 24.2912
rfingers 7.12502
rthumb 7.68952 -5.54898
lclavicle -6.60959e-015 -1.11319e-014
lhumerus -27.9287 -3.69997 84.5096
lradius 27.0011
lwrist 9.98395
lhand -28.8657 22.9387
lfingers 7.12502
lthumb -2.22205 52.9069
rfemur -27.6699 -2.15446 20.7687
rtibia 65.7525
rfoot -9.55214 -4.17444
rtoes -4.26228
lfemur -2.92534 -0.054166 -25.8973
ltibia 24.7716
lfoot -15.8207 -5.98078
ltoes 3.24445
168
root 0.824762 18.0681 0.762039 -3.94743 -1.37563 0.841672
lowerback 11.2784 -0.72953 -2.13936
upperback 0.8638 -1.15392 1.50801
thorax -5.34911 -0.50241 2.96943
lowerneck -16.2823 -2.39203 -1.47297
upperneck 22.2448 -2.70823 -1.02358
head 9.74786 -1.50402 -0.465328
rclavicle 3.95085e-015 1.19271e-015
rhumerus -30.1319 -16.5925 -79.0825
rradius 28.5144
rwrist 2.31462
rhand -18.4846 24.2099
rfingers 7.12502
rthumb 7.80258 -5.62617
lclavicle 3.95085e-015 1.19271e-015
lhumerus -27.0293 -3.94046 84.3753
lradius 26.844
lwrist 9.42986
lhand -29.1697 20.3428
lfingers 7.12502
lthumb -2.51564 50.3077
rfemur -28.3767 -2.00795 20.6157
rtibia 63.9983
rfoot -9.79474 -4.78502
rtoes -4.631
lfemur -2.42872 -0.0580928 -26.0969
ltibia 24.7535
lfoot -16.3658 -5.95324
ltoes 1.25085
169
root 0.816109 18.0549 0.927381 -3.90224 -1.03993 0.977897
lowerback 11.3414 -0.833625 -2.4005
upperback 0.853646 -1.32634 1.50779
thorax -5.3777 -0.580562 3.14556
lowerneck -16.3461 -2.47456 -1.62109
upperneck 22.0879 -2.82233 -0.861313
head 9.70966 -1.55014 -0.39848
rclavicle 6.23687e-015 -2.06736e-014
rhumerus -30.2845 -16.7668 -78.9972
rradius 28.5225
rwrist 2.4527
rhand -18.2694 24.0886
rfingers 7.12502
rthumb 8.01029 -5.73958
lclavicle 6.23687e-015 -2.06736e-014
lhumerus -26.2992 -4.71708 84.3376
lradius 26.715
lwrist 9.16376
lhand -29.6661 20.4089
lfingers 7.12502
lthumb -2.995 50.3676
rfemur -28.8599 -1.88652 20.5118
rtibia 62.0585
rfoot -10.1182 -5.31384
rtoes -3.2175
lfemur -1.81858 -0.169766 -26.2695
ltibia 24.6517
lfoot -16.9036 -5.91025
ltoes 1.98085
170
root 0.808996 18.0437 1.09023 -3.8408 -0.728756 1.04205
lowerback 11.3941 -0.948149 -2.58984
upperback 0.851541 -1.50143 1.54568
thorax -5.3911 -0.661625 3.32136
lowerneck -16.3835 -2.4572 -1.64541
upperneck 21.9306 -2.79621 -0.83737
head 9.66181 -1.53687 -0.381569
rclavicle -1.81391e-015 1.59028e-015
rhumerus -30.5386 -16.8888 -78.889
rradius 28.6609
rwrist 2.55822
rhand -18.1841 23.911
rfingers 7.12502
rthumb 8.09268 -5.9141
lclavicle -1.81391e-015 1.59028e-015
lhumerus -25.8013 -5.2473 84.2686
lradius 26.957
lwrist 9.20485
lhand -29.824 22.921
lfingers 7.12502
lthumb -3.14745 52.8775
rfemur -29.2662 -1.71846 20.4701
rtibia 59.9078
rfoot -10.2375 -5.94162
rtoes -2.08492
lfemur -1.26697 -0.458105 -26.3624
ltibia 24.3915
lfoot -16.9501 -6.00205
ltoes 2.02026
171
root 0.800577 18.0363 1.2484 -3.69772 -0.465179 1.0047
lowerback 11.4037 -1.05758 -2.6537
upperback 0.768803 -1.65334 1.58232
thorax -5.46939 -0.73172 3.4218
lowerneck -16.2483 -2.43465 -1.71462
upperneck 21.7868 -2.77937 -0.713761
head 9.5889 -1.5205 -0.321641
rclavicle 3.23274e-014 -6.36111e-015
rhumerus -31.0285 -16.5975 -78.8956
rradius 28.9325
rwrist 2.2874
rhand -18.4326 25.1296
rfingers 7.12502
rthumb 7.85279 -4.7046
lclavicle 3.23274e-014 -6.36111e-015
lhumerus -25.4899 -5.57061 84.0708
lradius 27.4785
lwrist 8.98958
lhand -29.321 26.2341
lfingers 7.12502
lthumb -2.66173 56.1972
rfemur -29.661 -1.44198 20.5276
rtibia 57.5217
rfoot -10.1697 -6.91862
rtoes -3.73509
lfemur -0.713066 -0.785483 -26.3362
ltibia 23.9099
lfoot -16.7096 -6.14664
ltoes 6.40053
172
root 0.793691 18.0359 1.4145 -3.61455 -0.284879 1.07208
lowerback 11.3727 -1.12381 -2.83387
upperback 0.747383 -1.76293 1.59811
thorax -5.46031 -0.781074 3.55691
lowerneck -16.4284 -2.45542 -1.70327
upperneck 21.8343 -2.8099 -0.704012
head 9.63933 -1.53244 -0.327165
rclavicle 1.59525e-014 -9.93923e-015
rhumerus -31.1513 -16.7414 -78.7727
rradius 28.6339
rwrist 2.45802
rhand -18.406 26.6982
rfingers 7.12502
rthumb 7.87848 -3.13497
lclavicle 1.59525e-014 -9.93923e-015
lhumerus -25.0214 -5.85094 83.9196
lradius 27.7441
lwrist 9.04764
lhand -29.4574 26.1984
lfingers 7.12502
lthumb -2.79342 56.1599
rfemur -29.8544 -1.19562 20.4355
rtibia 54.9082
rfoot -9.90568 -7.66329
rtoes -6.65045
lfemur 0.129542 -0.974497 -26.4492
ltibia 23.2603
lfoot -16.5798 -5.86766
ltoes 8.31881
173
root 0.791095 18.0408 1.58525 -3.55261 -0.283244 1.2133
lowerback 11.2216 -1.15394 -3.06388
upperback 0.766126 -1.82719 1.62104
thorax -5.34304 -0.810129 3.71545
lowerneck -16.4785 -2.42982 -1.68871
upperneck 21.8012 -2.76768 -0.742032
head 9.636 -1.51592 -0.337627
rclavicle -1.17283e-014 -2.06736e-014
rhumerus -31.2228 -16.8278 -78.6074
rradius 28.3279
rwrist 2.62313
rhand -18.3509 25.3776
rfingers 7.12502
rthumb 7.93162 -4.45362
lclavicle -1.17283e-014 -2.06736e-014
lhumerus -24.5901 -6.12483 83.8192
lradius 28.1232
lwrist 9.26235
lhand -30.287 24.2356
lfingers 7.12502
lthumb -3.59458 54.185
rfemur -29.8602 -0.760646 20.2013
rtibia 52.1346
rfoot -9.6218 -8.00295
rtoes -6.26855
lfemur 1.07941 -0.970625 -26.6733
ltibia 22.5711
lfoot -17.0009 -5.78566
ltoes 6.14094
174
root 0.78377 18.0457 1.74889 -3.43018 -0.244156 1.23878
lowerback 11.2217 -1.16595 -3.15378
upperback 0.678219 -1.85476 1.62641
thorax -5.43048 -0.818033 3.77844
lowerneck -16.3024 -2.47145 -1.88692
upperneck 21.6556 -2.86026 -0.398436
head 9.56117 -1.5359 -0.193977
rclavicle -4.44781e-015 3.18055e-015
rhumerus -31.6308 -17.1072 -78.4517
rradius 28.362
rwrist 2.92244
rhand -18.2719 23.5519
rfingers 7.12502
rthumb 8.00792 -6.27638
lclavicle -4.44781e-015 3.18055e-015
lhumerus -24.1431 -6.54455 83.6562
lradius 28.3748
lwrist 9.23855
lhand -30.2762 22.8736
lfingers 7.12502
lthumb -3.58423 52.8232
rfemur -30.065 -0.307963 20.1591
rtibia 49.2111
rfoot -8.67863 -8.80233
rtoes -7.2208
lfemur 1.94897 -0.705004 -26.6483
ltibia 21.7873
lfoot -17.1079 -6.0041
ltoes 3.54003
